<?xml version="1.0" encoding="utf-8"?>
<!-- Generator: Adobe Illustrator 23.0.3, SVG Export Plug-In . SVG Version: 6.00 Build 0)  -->
<svg version="1.1" id="Capa_1" xmlns="http://www.w3.org/2000/svg" xmlns:xlink="http://www.w3.org/1999/xlink" x="0px" y="0px"
	 viewBox="0 0 64 72" style="enable-background:new 0 0 64 72;" xml:space="preserve">
<style type="text/css">
	.st0{fill:#FFFFFF;}
	.st1{fill:none;stroke:#FFFFFF;stroke-width:2;}
</style>
<title>feature-icon-quarter</title>
<desc>Created with Sketch.</desc>
<g id="Page-1">
	<g id="feature-icon-quarter" transform="translate(-4.000000, 0.000000)">
		<g id="Polygon">
			<path class="st0" d="M36,2.3l29.2,16.8v33.7L36,69.7L6.8,52.8V19.2L36,2.3 M36,0L4.8,18v36L36,72l31.2-18V18L36,0L36,0z"/>
		</g>
		<g id="icon-copy-2" transform="translate(24.000000, 21.000000)">
			
				<g id="bottom" transform="translate(11.500000, 20.500000) rotate(-180.000000) translate(-11.500000, -20.500000) translate(0.000000, 10.000000)">
				<path id="path" class="st1" d="M5,1v6 M5,13v8h18"/>
				<polyline class="st1" points="10,5 5,0 0,5 				"/>
			</g>
			<g id="top" transform="translate(1.000000, 0.000000)">
				<path class="st1" d="M5,1v6 M5,13v8h18"/>
				<polyline class="st1" points="10,5 5,0 0,5 				"/>
			</g>
		</g>
	</g>
</g>
</svg>
