<?xml version="1.0" encoding="utf-8"?>
<!-- Generator: Adobe Illustrator 23.0.3, SVG Export Plug-In . SVG Version: 6.00 Build 0)  -->
<svg version="1.1" id="Capa_1" xmlns="http://www.w3.org/2000/svg" xmlns:xlink="http://www.w3.org/1999/xlink" x="0px" y="0px"
	 viewBox="0 0 64 72" style="enable-background:new 0 0 64 72;" xml:space="preserve">
<style type="text/css">
	.st0{fill:#FFFFFF;}
	.st1{fill:none;stroke:#FFFFFF;stroke-width:2;}
</style>
<title>feature-icon-primary</title>
<desc>Created with Sketch.</desc>
<g id="Page-1">
	<g id="feature-icon-primary" transform="translate(-4.000000, 0.000000)">
		<g id="Polygon">
			<path class="st0" d="M36,2.3l29.2,16.8v33.7L36,69.7L6.8,52.8V19.2L36,2.3 M36,0L4.8,18v36L36,72l31.2-18V18L36,0L36,0z"/>
		</g>
		<g id="line-copy" transform="translate(17.000000, 22.000000)">
			<circle id="path" class="st1" cx="19" cy="14" r="4"/>
			<path class="st1" d="M7.5,22c2.5,3.6,6.7,6,11.5,6c7.7,0,14-6.3,14-14c0-0.6,0-1.1-0.1-1.7 M30.5,6C28,2.4,23.8,0,19,0
				C11.3,0,5,6.3,5,14c0,1.1,0.1,2.1,0.4,3.1"/>
			<polyline class="st1" points="38,16 33,11 28,16 			"/>
			<polyline class="st1" points="0,13 5,18 10,13 			"/>
		</g>
	</g>
</g>
</svg>
